<svg xmlns="http://www.w3.org/2000/svg" width="1143.54" height="182.53" viewBox="0 0 1143.54 182.53">
    <defs>
        <style>.cls-1{fill:#737c7c}</style>
    </defs>
    <path d="M169.24 175H71.4c-6.81 0-10.25-8.75-5.48-13.93l37.94-38.13 15.73-59.04L90.9 11.87A8 8 0 0 1 97.9 0h76.44l-28.83 108.2 30.71 54.89a8 8 0 0 1-6.98 11.91"
          class="cls-1"/>
    <path d="M84.34 0 37.71 175H0L46.61 0zm90 0-28.83 108.2-17.8 66.8H90l13.53-50.82.33-1.24-33.21-33.21a8 8 0 0 1 3.54-13.37l45.4-12.46.02-.08 17-63.82zm52.08 27.65h22.53v40.3c3.34-4.4 9.5-8.45 19.71-8.45 17.78 0 32.21 8.45 32.21 34.5v55.09h-22.35V97.52c0-13.73-4.93-18.66-14.08-18.66-10.38 0-15.49 6.86-15.49 18.48v51.74h-22.53zm165.43 82.54c0 24.11-11.44 40.48-38.01 40.48s-38.02-15.84-38.02-40.48V99.63c0-26.4 13.9-40.13 38.02-40.13s38.01 13.73 38.01 40.13zm-22.35-.7v-9.15c0-14.08-4.58-21.82-15.66-21.82s-15.66 7.74-15.66 21.82v9.15c0 12.67 3.17 22.18 15.66 22.18s15.66-9.5 15.66-22.18m37.31-48.4h22v7.39c3.34-4.4 10.38-8.98 20.24-8.98 17.78 0 32.21 8.45 32.21 34.5v55.09h-22.35V97.52c0-13.73-4.93-18.66-14.08-18.66-10.38 0-15.49 6.86-15.49 18.48v51.74h-22.53zm105.6 0 19.54 56.32 17.6-56.32h22.7l-30.8 92.05c-7.92 23.58-15.66 29.39-40.3 29.39v-20.06c12.14 0 16.9-1.94 20.59-12.14L488.83 61.1zm96.27 35.2h17.42v-5.1c0-9.86-2.99-13.02-15.66-13.02-8.62 0-12.85 1.23-16.54 7.04l-15.84-11.09c6.51-10.74 16.37-14.61 34.5-14.61 22.7 0 35.55 6.69 35.55 31.85v57.73h-22v-7.74c-3.52 5.98-8.8 9.33-19.01 9.33-18.3 0-30.97-9.68-30.97-27.63s14.08-26.75 32.56-26.75Zm17.43 16.54h-14.78c-9.15 0-13.2 2.99-13.2 9.86s5.1 9.86 12.85 9.86c10.21 0 15.14-4.4 15.14-16.37zm113.86-51.74-30.45 36.78 35.55 51.21h-26.4l-24.11-33.09-5.98 7.39v25.7h-22.53V27.65h22.53v65.47l24.64-32.03zm87.83 88h-22v-7.39c-3.7 5.98-8.45 8.98-20.06 8.98-17.78 0-32.38-8.8-32.38-34.67V61.1h22.53v51.57c0 13.9 4.93 18.66 14.26 18.66 10.38 0 15.31-6.34 15.31-18.48V61.11h22.35v88Z"/>
    <path d="M874.96 149.09H847.5v-27.46h18.46a9 9 0 0 1 9 9zm66.53-121.44h22.35v121.44h-22.35v-5.1c-4.58 4.22-10.56 6.69-18.83 6.69-23.06 0-34.85-16.37-34.85-39.77V98.94c0-25.7 13.9-39.42 34.85-39.42 7.57 0 13.9 1.94 18.83 6.16zm0 81.84V98.4c0-12.85-5.1-19.89-15.66-19.89-11.09 0-15.66 7.74-15.66 21.82v9.15c0 12.67 3.52 22.18 15.66 22.18s15.66-9.5 15.66-22.18Zm107.89 26.22c-6.16 10.74-16.37 14.96-32.21 14.96-26.4 0-39.07-17.07-39.07-39.77V98.93c0-26.58 13.38-39.42 36.25-39.42 24.82 0 36.25 14.43 36.25 41.18v10.03h-50.16c.18 12.14 4.05 20.94 16.54 20.94 9.33 0 12.32-2.82 15.66-7.57l16.72 11.62Zm-48.93-41.01h27.63c-.53-11.44-5.1-16.19-13.55-16.19-8.98 0-13.2 6.16-14.08 16.19m143.09-33.61-33.44 88h-21.12l-34.14-88h24.64l19.71 57.02 19.54-57.02z"
          class="cls-1"/>
</svg>
